<?xml version="1.0" encoding="UTF-8"?>
<svg xmlns="http://www.w3.org/2000/svg" xmlns:xlink="http://www.w3.org/1999/xlink" width="70pt" height="70pt" viewBox="0 0 218.2 182.1" version="1.1">
<defs>
<clipPath id="clip1">
  <path d="M 31 110 L 182 110 L 182 182.101563 L 31 182.101563 Z M 31 110 "/>
</clipPath>
<clipPath id="clip2">
  <path d="M 0 0 L 218.199219 0 L 218.199219 97 L 0 97 Z M 0 0 "/>
</clipPath>
</defs>
<g id="surface1">
<path style=" stroke:none;fill-rule:evenodd;fill:rgb(10.594177%,9.812927%,9.423828%);fill-opacity:1;" d="M 67.304688 49.535156 L 118.914063 49.535156 L 125.121094 55.53125 L 61.644531 55.53125 Z M 92.421875 151.304688 L 158.109375 151.304688 L 152.4375 157.300781 L 98.625 157.300781 Z M 81.890625 141.128906 L 167.742188 141.128906 L 162.066406 147.125 L 88.097656 147.125 Z M 146.242188 130.953125 L 177.371094 130.953125 L 171.695313 136.949219 L 141.050781 136.949219 Z M 151.804688 120.773438 L 187 120.773438 L 181.324219 126.773438 L 148.9375 126.773438 Z M 154.40625 110.597656 L 196.628906 110.597656 L 190.953125 116.59375 L 153.214844 116.59375 Z M 19.269531 100.421875 L 206.257813 100.421875 L 200.585938 106.417969 L 13.609375 106.417969 Z M 28.878906 90.242188 L 65.816406 90.242188 L 64.371094 96.242188 L 23.21875 96.242188 Z M 38.484375 80.066406 L 70.4375 80.066406 L 67.351563 86.0625 L 32.824219 86.0625 Z M 48.089844 69.890625 L 78.894531 69.890625 L 73.324219 75.886719 L 42.429688 75.886719 Z M 57.699219 59.714844 L 129.449219 59.714844 L 135.65625 65.710938 L 52.039063 65.710938 Z M 57.699219 59.714844 "/>
<g clip-path="url(#clip1)" clip-rule="nonzero">
<path style=" stroke:none;fill-rule:evenodd;fill:rgb(10.594177%,9.812927%,9.423828%);fill-opacity:1;" d="M 35.753906 110.597656 C 37.316406 128.464844 45.183594 144.515625 57.105469 156.492188 C 70.472656 169.914063 88.9375 178.21875 109.335938 178.21875 C 129.734375 178.21875 148.203125 169.914063 161.570313 156.492188 C 165.9375 152.101563 169.761719 147.167969 172.929688 141.796875 L 181.738281 132.464844 C 177.796875 142.574219 171.8125 151.660156 164.300781 159.207031 C 150.230469 173.339844 130.796875 182.082031 109.335938 182.082031 C 87.878906 182.082031 68.445313 173.339844 54.375 159.207031 C 41.753906 146.53125 33.453125 129.519531 31.878906 110.597656 Z M 35.753906 110.597656 "/>
</g>
<g clip-path="url(#clip2)" clip-rule="nonzero">
<path style=" stroke:none;fill-rule:evenodd;fill:rgb(10.594177%,9.812927%,9.423828%);fill-opacity:1;" d="M 181.726563 30.070313 L 218.296875 66.269531 L 195.171875 88.804688 C 192.613281 91.292969 192.941406 93.878906 192.875 96.054688 L 188.949219 96.054688 C 189.007813 91.316406 189.542969 88.902344 193.195313 85.34375 L 212.839844 66.199219 L 179.054688 32.730469 C 160.683594 14.277344 135.34375 3.722656 109.304688 3.722656 C 83.332031 3.722656 57.832031 14.324219 39.507813 32.730469 C 30.445313 41.832031 9.71875 61.945313 5.554688 66.035156 C 5.492188 67.066406 24.664063 84.65625 25.9375 85.902344 L 23.296875 88.710938 L 0.078125 66.082031 C 3.53125 62.644531 27.070313 39.882813 36.835938 30.070313 C 55.914063 10.90625 82.210938 -0.0585938 109.261719 -0.0585938 C 136.234375 -0.0585938 162.699219 10.960938 181.726563 30.070313 Z M 181.726563 30.070313 "/>
</g>
<path style="fill-rule:evenodd;fill:rgb(100%,100%,100%);fill-opacity:1;stroke-width:14.239;stroke-linecap:butt;stroke-linejoin:miter;stroke:rgb(10.594177%,9.812927%,9.423828%);stroke-opacity:1;stroke-miterlimit:4;" d="M 1093.359375 1239.085938 C 1345.3125 1239.085938 1549.570313 1033.929688 1549.570313 780.882813 C 1549.570313 527.796875 1345.3125 322.640625 1093.359375 322.640625 C 841.445313 322.640625 637.1875 527.796875 637.1875 780.882813 C 637.1875 1033.929688 841.445313 1239.085938 1093.359375 1239.085938 Z M 1093.359375 1239.085938 " transform="matrix(0.1,0,0,-0.1,0,182.1)"/>
<path style="fill-rule:evenodd;fill:rgb(6.272888%,16.479492%,51.367188%);fill-opacity:1;stroke-width:11.339;stroke-linecap:butt;stroke-linejoin:miter;stroke:rgb(100%,100%,100%);stroke-opacity:1;stroke-miterlimit:4;" d="M 1093.359375 1226.039063 C 1338.164063 1226.039063 1536.5625 1026.742188 1536.5625 780.882813 C 1536.5625 534.984375 1338.164063 335.6875 1093.359375 335.6875 C 848.59375 335.6875 650.15625 534.984375 650.15625 780.882813 C 650.15625 1026.742188 848.59375 1226.039063 1093.359375 1226.039063 Z M 1093.359375 1226.039063 " transform="matrix(0.1,0,0,-0.1,0,182.1)"/>
<path style="fill-rule:evenodd;fill:rgb(89.0625%,0%,8.616638%);fill-opacity:1;stroke-width:11.389;stroke-linecap:butt;stroke-linejoin:miter;stroke:rgb(100%,100%,100%);stroke-opacity:1;stroke-miterlimit:4;" d="M 1093.359375 1077.601563 C 1256.523438 1077.601563 1388.789063 944.75 1388.789063 780.882813 C 1388.789063 616.976563 1256.523438 484.125 1093.359375 484.125 C 930.195313 484.125 797.929688 616.976563 797.929688 780.882813 C 797.929688 944.75 930.195313 1077.601563 1093.359375 1077.601563 Z M 1093.359375 1077.601563 " transform="matrix(0.1,0,0,-0.1,0,182.1)"/>
<path style=" stroke:none;fill-rule:evenodd;fill:rgb(100%,100%,100%);fill-opacity:1;" d="M 109.335938 63.535156 L 110.488281 65.519531 L 112.71875 66.007813 L 111.199219 67.722656 L 111.425781 70.007813 L 109.335938 69.082031 L 107.246094 70.007813 L 107.476563 67.722656 L 105.957031 66.007813 L 108.1875 65.519531 Z M 109.335938 63.535156 "/>
<path style=" stroke:none;fill-rule:evenodd;fill:rgb(100%,100%,100%);fill-opacity:1;" d="M 119.375 64.8125 L 119.996094 67.019531 L 122.035156 68.050781 L 120.140625 69.332031 L 119.792969 71.601563 L 117.996094 70.183594 L 115.746094 70.554688 L 116.53125 68.398438 L 115.488281 66.359375 L 117.765625 66.441406 Z M 119.375 64.8125 "/>
<path style=" stroke:none;fill-rule:evenodd;fill:rgb(100%,100%,100%);fill-opacity:1;" d="M 128.777344 68.554688 L 128.828125 70.851563 L 130.550781 72.359375 L 128.394531 73.121094 L 127.5 75.238281 L 126.113281 73.414063 L 123.839844 73.210938 L 125.140625 71.320313 L 124.628906 69.082031 L 126.816406 69.738281 Z M 128.777344 68.554688 "/>
<path style=" stroke:none;fill-rule:evenodd;fill:rgb(100%,100%,100%);fill-opacity:1;" d="M 136.957031 74.535156 L 136.449219 76.769531 L 137.730469 78.664063 L 135.460938 78.875 L 134.0625 80.6875 L 133.164063 78.582031 L 131.019531 77.8125 L 132.738281 76.300781 L 132.808594 74.011719 L 134.765625 75.179688 Z M 136.957031 74.535156 "/>
<path style=" stroke:none;fill-rule:evenodd;fill:rgb(100%,100%,100%);fill-opacity:1;" d="M 143.394531 82.375 L 142.351563 84.410156 L 143.121094 86.566406 L 140.871094 86.203125 L 139.066406 87.605469 L 138.71875 85.34375 L 136.832031 84.058594 L 138.871094 83.027344 L 139.507813 80.828125 L 141.113281 82.449219 Z M 143.394531 82.375 "/>
<path style=" stroke:none;fill-rule:evenodd;fill:rgb(100%,100%,100%);fill-opacity:1;" d="M 147.6875 91.574219 L 146.164063 93.285156 L 146.382813 95.566406 L 144.292969 94.644531 L 142.199219 95.558594 L 142.429688 93.28125 L 140.914063 91.566406 L 143.148438 91.078125 L 144.304688 89.105469 L 145.457031 91.082031 Z M 147.6875 91.574219 "/>
<path style=" stroke:none;fill-rule:evenodd;fill:rgb(100%,100%,100%);fill-opacity:1;" d="M 149.5625 101.558594 L 147.660156 102.832031 L 147.3125 105.097656 L 145.515625 103.679688 L 143.257813 104.046875 L 144.050781 101.894531 L 143.003906 99.859375 L 145.289063 99.949219 L 146.902344 98.320313 L 147.523438 100.527344 Z M 149.5625 101.558594 "/>
<path style=" stroke:none;fill-rule:evenodd;fill:rgb(100%,100%,100%);fill-opacity:1;" d="M 148.90625 111.699219 L 146.746094 112.457031 L 145.847656 114.5625 L 144.460938 112.742188 L 142.183594 112.53125 L 143.480469 110.644531 L 142.976563 108.410156 L 145.167969 109.070313 L 147.128906 107.898438 L 147.183594 110.1875 Z M 148.90625 111.699219 "/>
<path style=" stroke:none;fill-rule:evenodd;fill:rgb(100%,100%,100%);fill-opacity:1;" d="M 145.753906 121.355469 L 143.480469 121.558594 L 142.082031 123.363281 L 141.183594 121.261719 L 139.035156 120.480469 L 140.753906 118.972656 L 140.824219 116.6875 L 142.785156 117.859375 L 144.976563 117.226563 L 144.472656 119.457031 Z M 145.753906 121.355469 "/>
<path style=" stroke:none;fill-rule:evenodd;fill:rgb(100%,100%,100%);fill-opacity:1;" d="M 140.304688 129.917969 L 138.050781 129.53125 L 136.253906 130.945313 L 135.917969 128.671875 L 134.019531 127.390625 L 136.066406 126.371094 L 136.691406 124.164063 L 138.292969 125.808594 L 140.578125 125.726563 L 139.519531 127.761719 Z M 140.304688 129.917969 "/>
<path style=" stroke:none;fill-rule:evenodd;fill:rgb(100%,100%,100%);fill-opacity:1;" d="M 132.910156 136.847656 L 130.820313 135.917969 L 128.726563 136.828125 L 128.960938 134.546875 L 127.445313 132.828125 L 129.679688 132.347656 L 130.835938 130.371094 L 131.984375 132.359375 L 134.210938 132.859375 L 132.6875 134.5625 Z M 132.910156 136.847656 "/>
<path style=" stroke:none;fill-rule:evenodd;fill:rgb(100%,100%,100%);fill-opacity:1;" d="M 124.027344 141.710938 L 122.234375 140.289063 L 119.980469 140.644531 L 120.769531 138.496094 L 119.734375 136.449219 L 122.011719 136.539063 L 123.625 134.917969 L 124.246094 137.128906 L 126.277344 138.171875 L 124.382813 139.445313 Z M 124.027344 141.710938 "/>
<path style=" stroke:none;fill-rule:evenodd;fill:rgb(100%,100%,100%);fill-opacity:1;" d="M 114.21875 144.195313 L 112.832031 142.378906 L 110.566406 142.15625 L 111.851563 140.265625 L 111.363281 138.027344 L 113.546875 138.679688 L 115.511719 137.519531 L 115.574219 139.808594 L 117.273438 141.332031 L 115.128906 142.097656 Z M 114.21875 144.195313 "/>
<path style=" stroke:none;fill-rule:evenodd;fill:rgb(100%,100%,100%);fill-opacity:1;" d="M 99.300781 64.8125 L 98.679688 67.019531 L 96.640625 68.050781 L 98.535156 69.332031 L 98.882813 71.601563 L 100.675781 70.183594 L 102.929688 70.554688 L 102.140625 68.398438 L 103.1875 66.359375 L 100.90625 66.445313 Z M 99.300781 64.8125 "/>
<path style=" stroke:none;fill-rule:evenodd;fill:rgb(100%,100%,100%);fill-opacity:1;" d="M 89.898438 68.554688 L 89.839844 70.851563 L 88.125 72.359375 L 90.277344 73.125 L 91.175781 75.238281 L 92.5625 73.417969 L 94.835938 73.210938 L 93.539063 71.320313 L 94.042969 69.082031 L 91.859375 69.734375 Z M 89.898438 68.554688 "/>
<path style=" stroke:none;fill-rule:evenodd;fill:rgb(100%,100%,100%);fill-opacity:1;" d="M 81.71875 74.535156 L 82.21875 76.769531 L 80.941406 78.664063 L 83.210938 78.878906 L 84.613281 80.6875 L 85.511719 78.585938 L 87.65625 77.8125 L 85.941406 76.296875 L 85.867188 74.011719 L 83.90625 75.175781 Z M 81.71875 74.535156 "/>
<path style=" stroke:none;fill-rule:evenodd;fill:rgb(100%,100%,100%);fill-opacity:1;" d="M 75.28125 82.375 L 76.328125 84.410156 L 75.550781 86.566406 L 77.804688 86.199219 L 79.605469 87.605469 L 79.953125 85.34375 L 81.839844 84.058594 L 79.800781 83.027344 L 79.167969 80.828125 L 77.5625 82.453125 Z M 75.28125 82.375 "/>
<path style=" stroke:none;fill-rule:evenodd;fill:rgb(100%,100%,100%);fill-opacity:1;" d="M 70.988281 91.574219 L 72.5 93.289063 L 72.289063 95.566406 L 74.382813 94.652344 L 76.476563 95.558594 L 76.253906 93.28125 L 77.757813 91.566406 L 75.53125 91.074219 L 74.367188 89.105469 L 73.210938 91.074219 Z M 70.988281 91.574219 "/>
<path style=" stroke:none;fill-rule:evenodd;fill:rgb(100%,100%,100%);fill-opacity:1;" d="M 69.109375 101.558594 L 71 102.84375 L 71.363281 105.097656 L 73.160156 103.695313 L 75.414063 104.046875 L 74.640625 101.898438 L 75.667969 99.859375 L 73.390625 99.933594 L 71.773438 98.320313 L 71.140625 100.515625 Z M 69.109375 101.558594 "/>
<path style=" stroke:none;fill-rule:evenodd;fill:rgb(100%,100%,100%);fill-opacity:1;" d="M 69.769531 111.699219 L 71.910156 112.476563 L 72.828125 114.5625 L 74.226563 112.761719 L 76.492188 112.53125 L 75.214844 110.640625 L 75.699219 108.410156 L 73.511719 109.046875 L 71.542969 107.898438 L 71.46875 110.179688 Z M 69.769531 111.699219 "/>
<path style=" stroke:none;fill-rule:evenodd;fill:rgb(100%,100%,100%);fill-opacity:1;" d="M 72.921875 121.355469 L 75.195313 121.554688 L 76.59375 123.363281 L 77.488281 121.257813 L 79.636719 120.480469 L 77.917969 118.976563 L 77.847656 116.6875 L 75.890625 117.863281 L 73.695313 117.226563 L 74.203125 119.460938 Z M 72.921875 121.355469 "/>
<path style=" stroke:none;fill-rule:evenodd;fill:rgb(100%,100%,100%);fill-opacity:1;" d="M 78.367188 129.917969 L 80.617188 129.546875 L 82.421875 130.945313 L 82.769531 128.679688 L 84.65625 127.390625 L 82.617188 126.363281 L 81.980469 124.164063 L 80.375 125.792969 L 78.09375 125.726563 L 79.140625 127.761719 Z M 78.367188 129.917969 "/>
<path style=" stroke:none;fill-rule:evenodd;fill:rgb(100%,100%,100%);fill-opacity:1;" d="M 85.765625 136.847656 L 87.851563 135.921875 L 89.945313 136.828125 L 89.71875 134.550781 L 91.226563 132.828125 L 89 132.34375 L 87.839844 130.371094 L 86.6875 132.351563 L 84.460938 132.859375 L 85.980469 134.566406 Z M 85.765625 136.847656 "/>
<path style=" stroke:none;fill-rule:evenodd;fill:rgb(100%,100%,100%);fill-opacity:1;" d="M 94.648438 141.710938 L 96.433594 140.273438 L 98.691406 140.644531 L 97.886719 138.492188 L 98.941406 136.449219 L 96.65625 136.554688 L 95.050781 134.917969 L 94.441406 137.136719 L 92.398438 138.171875 L 94.304688 139.4375 Z M 94.648438 141.710938 "/>
<path style=" stroke:none;fill-rule:evenodd;fill:rgb(100%,100%,100%);fill-opacity:1;" d="M 104.457031 144.195313 L 105.839844 142.371094 L 108.109375 142.15625 L 106.8125 140.269531 L 107.308594 138.027344 L 105.125 138.6875 L 103.164063 137.519531 L 103.109375 139.8125 L 101.398438 141.332031 L 103.550781 142.089844 Z M 104.457031 144.195313 "/>
<path style=" stroke:none;fill-rule:evenodd;fill:rgb(100%,92.576599%,0%);fill-opacity:1;" d="M 118.597656 90.886719 L 133.136719 96.003906 L 124.324219 108.867188 L 124.046875 124.554688 L 109.335938 119.976563 L 94.628906 124.554688 L 94.351563 108.863281 L 85.535156 96.003906 L 100.074219 90.886719 L 109.335938 78.359375 Z M 118.597656 90.886719 "/>
<path style=" stroke:none;fill-rule:evenodd;fill:rgb(77.34375%,66.209412%,0%);fill-opacity:1;" d="M 109.335938 119.976563 L 109.335938 102.925781 L 133.136719 96.003906 L 124.324219 108.867188 L 109.335938 102.925781 L 109.335938 78.359375 L 118.597656 90.886719 L 109.335938 102.925781 L 85.535156 96.003906 L 100.074219 90.886719 L 109.335938 102.925781 L 94.628906 124.554688 L 94.351563 108.863281 L 109.335938 102.925781 L 124.046875 124.554688 Z M 109.335938 119.976563 "/>
<path style=" stroke:none;fill-rule:evenodd;fill:rgb(10.594177%,9.812927%,9.423828%);fill-opacity:1;" d="M 28.046875 81.671875 L 11.96875 66.097656 L 18.621094 59.226563 C 19.742188 58.070313 20.800781 57.464844 21.800781 57.421875 C 22.796875 57.378906 23.839844 57.890625 24.929688 58.945313 L 30.488281 64.328125 C 31.570313 65.378906 32.109375 66.402344 32.101563 67.398438 C 32.085938 68.398438 31.519531 69.476563 30.394531 70.632813 L 26.976563 74.160156 L 31.28125 78.332031 Z M 20.535156 63.996094 L 18.574219 66.019531 L 23.609375 70.898438 L 25.574219 68.875 C 26.144531 68.285156 26.4375 67.796875 26.460938 67.398438 C 26.484375 67 26.257813 66.570313 25.777344 66.105469 L 23.277344 63.683594 C 22.8125 63.234375 22.378906 63.023438 21.984375 63.058594 C 21.585938 63.09375 21.105469 63.40625 20.535156 63.996094 Z M 20.535156 63.996094 "/>
<path style=" stroke:none;fill-rule:evenodd;fill:rgb(10.594177%,9.812927%,9.423828%);fill-opacity:1;" d="M 27.648438 50.527344 C 26.503906 51.636719 25.910156 52.683594 25.867188 53.671875 C 25.828125 54.652344 26.335938 55.6875 27.378906 56.761719 L 36.804688 66.464844 C 37.84375 67.535156 38.855469 68.066406 39.839844 68.054688 C 40.828125 68.042969 41.890625 67.476563 43.035156 66.367188 L 46.515625 62.984375 C 47.371094 62.15625 48.28125 61.0625 48.335938 59.800781 C 48.375 58.820313 47.875 57.792969 46.835938 56.722656 L 37.410156 47.015625 C 36.367188 45.941406 35.347656 45.40625 34.363281 45.417969 C 33.375 45.429688 32.3125 45.996094 31.171875 47.105469 C 29.996094 48.246094 28.820313 49.386719 27.648438 50.527344 Z M 32.382813 52.363281 L 32.867188 51.890625 C 33.449219 51.328125 33.9375 51.035156 34.328125 51.011719 C 34.71875 50.988281 35.140625 51.207031 35.589844 51.667969 L 42.109375 58.378906 C 42.566406 58.851563 42.777344 59.285156 42.742188 59.675781 C 42.710938 60.066406 42.402344 60.542969 41.824219 61.109375 L 41.335938 61.582031 C 40.753906 62.144531 40.269531 62.4375 39.875 62.460938 C 39.484375 62.484375 39.058594 62.261719 38.601563 61.789063 L 32.082031 55.078125 C 31.632813 54.617188 31.425781 54.1875 31.460938 53.796875 C 31.496094 53.40625 31.800781 52.929688 32.382813 52.363281 Z M 32.382813 52.363281 "/>
<path style=" stroke:none;fill-rule:evenodd;fill:rgb(10.594177%,9.812927%,9.423828%);fill-opacity:1;" d="M 51.464844 57.539063 L 36.289063 41.917969 L 39.535156 38.765625 C 43.535156 42.882813 47.535156 47 51.535156 51.113281 L 58.09375 44.59375 L 61.121094 47.707031 C 57.828125 50.90625 54.757813 54.339844 51.464844 57.539063 Z M 51.464844 57.539063 "/>
<path style=" stroke:none;fill-rule:evenodd;fill:rgb(10.594177%,9.812927%,9.423828%);fill-opacity:1;" d="M 62.800781 46.449219 L 48.902344 29.835938 L 52.46875 26.851563 C 57.257813 32.574219 61.578125 37.742188 66.367188 43.464844 C 62.746094 46.492188 66.417969 43.421875 62.800781 46.449219 Z M 62.800781 46.449219 "/>
<path style=" stroke:none;fill-rule:evenodd;fill:rgb(10.594177%,9.812927%,9.423828%);fill-opacity:1;" d="M 60.410156 21.03125 C 59.039063 21.839844 58.21875 22.71875 57.941406 23.667969 C 57.675781 24.613281 57.925781 25.734375 58.6875 27.023438 L 65.578125 38.660156 C 66.335938 39.941406 67.195313 40.695313 68.15625 40.914063 C 69.117188 41.132813 70.28125 40.832031 71.652344 40.019531 L 75.828125 37.550781 C 76.851563 36.945313 77.992188 36.097656 78.34375 34.882813 C 78.609375 33.9375 78.363281 32.820313 77.605469 31.539063 L 76.429688 29.554688 L 72.519531 31.871094 L 72.625 32.042969 C 72.957031 32.609375 73.0625 33.078125 72.9375 33.453125 C 72.8125 33.824219 72.402344 34.214844 71.707031 34.628906 L 71.121094 34.972656 C 70.425781 35.386719 69.886719 35.554688 69.5 35.488281 C 69.113281 35.417969 68.75 35.101563 68.417969 34.535156 L 63.652344 26.488281 C 63.324219 25.933594 63.222656 25.472656 63.347656 25.097656 C 63.476563 24.726563 63.882813 24.335938 64.578125 23.921875 L 65.164063 23.578125 C 65.859375 23.164063 66.402344 22.996094 66.785156 23.0625 C 67.171875 23.132813 67.53125 23.445313 67.859375 23.996094 L 67.972656 24.1875 L 71.882813 21.875 L 70.714844 19.902344 C 69.953125 18.613281 69.089844 17.855469 68.132813 17.636719 C 67.167969 17.417969 66.003906 17.71875 64.632813 18.527344 C 63.226563 19.363281 61.816406 20.195313 60.410156 21.03125 Z M 60.410156 21.03125 "/>
<path style=" stroke:none;fill-rule:evenodd;fill:rgb(10.594177%,9.812927%,9.423828%);fill-opacity:1;" d="M 81.835938 34.703125 L 73.949219 14.011719 L 78.296875 12.355469 C 80.957031 19.328125 83.527344 26.074219 86.183594 33.046875 C 81.773438 34.726563 86.246094 33.023438 81.835938 34.703125 Z M 81.835938 34.703125 "/>
<path style=" stroke:none;fill-rule:evenodd;fill:rgb(10.594177%,9.812927%,9.423828%);fill-opacity:1;" d="M 96.136719 7.78125 L 103.304688 29.457031 L 98.601563 30.007813 L 97.152344 25.640625 L 93.53125 26.386719 L 93.925781 30.875 L 89.359375 32.035156 L 87.402344 9.582031 C 90.3125 8.980469 93.226563 8.378906 96.136719 7.78125 Z M 93.03125 13.203125 L 92.398438 13.335938 L 93.128906 21.71875 L 95.679688 21.195313 Z M 93.03125 13.203125 "/>
<path style=" stroke:none;fill-rule:evenodd;fill:rgb(10.594177%,9.812927%,9.423828%);fill-opacity:1;" d="M 123.183594 8.089844 L 126.070313 22.671875 L 134.648438 10.621094 L 137.96875 11.570313 L 135.753906 34.226563 L 131.308594 32.746094 L 132.34375 21.71875 L 124.320313 30.917969 L 120.753906 19.253906 L 117.175781 29.738281 L 112.394531 29.265625 L 119.773438 7.589844 Z M 123.183594 8.089844 "/>
<path style=" stroke:none;fill-rule:evenodd;fill:rgb(10.594177%,9.812927%,9.423828%);fill-opacity:1;" d="M 136.484375 34.496094 L 145.578125 14.417969 L 149.816406 16.335938 C 146.738281 23.132813 143.800781 29.617188 140.722656 36.414063 Z M 136.484375 34.496094 "/>
<path style=" stroke:none;fill-rule:evenodd;fill:rgb(10.594177%,9.812927%,9.423828%);fill-opacity:1;" d="M 142.046875 37.074219 L 153.300781 18.296875 L 157.320313 20.640625 C 154.351563 25.734375 151.183594 30.625 148.214844 35.722656 L 156.234375 40.558594 L 153.875 44.605469 Z M 142.046875 37.074219 "/>
<path style=" stroke:none;fill-rule:evenodd;fill:rgb(10.594177%,9.812927%,9.423828%);fill-opacity:1;" d="M 155.082031 45.503906 L 169.042969 29.507813 L 172.503906 32.527344 C 167.65625 38.078125 163.386719 42.972656 158.542969 48.523438 C 155.03125 45.457031 158.59375 48.566406 155.082031 45.503906 Z M 155.082031 45.503906 "/>
<path style=" stroke:none;fill-rule:evenodd;fill:rgb(10.594177%,9.812927%,9.423828%);fill-opacity:1;" d="M 162.484375 52.726563 L 174.253906 40.90625 L 170.886719 37.550781 L 174.191406 34.230469 C 177.539063 37.558594 180.882813 40.890625 184.226563 44.21875 L 180.917969 47.542969 L 177.550781 44.1875 L 165.777344 56.007813 C 162.433594 52.679688 165.828125 56.054688 162.484375 52.726563 Z M 162.484375 52.726563 "/>
<path style=" stroke:none;fill-rule:evenodd;fill:rgb(10.594177%,9.812927%,9.423828%);fill-opacity:1;" d="M 192.820313 52.273438 L 179.117188 69.554688 L 175.847656 66.292969 L 178.640625 62.773438 L 176.066406 60.191406 L 172.570313 62.949219 C 171.808594 62.175781 170.472656 60.796875 169.339844 59.65625 L 186.609375 46.042969 C 188.679688 48.121094 190.75 50.199219 192.820313 52.273438 Z M 186.667969 52.648438 L 186.214844 52.195313 L 179.695313 57.332031 L 181.511719 59.15625 Z M 186.667969 52.648438 "/>
<path style=" stroke:none;fill-rule:evenodd;fill:rgb(10.594177%,9.812927%,9.423828%);fill-opacity:1;" d="M 181.285156 71.835938 L 196.695313 56.050781 L 203.539063 62.734375 C 204.691406 63.859375 205.289063 64.917969 205.332031 65.917969 C 205.367188 66.914063 204.855469 67.957031 203.792969 69.042969 L 198.390625 74.578125 C 197.335938 75.660156 196.308594 76.195313 195.3125 76.179688 C 194.816406 76.171875 194.296875 76.023438 193.761719 75.742188 L 191.257813 82.027344 L 187.863281 78.714844 L 190.25 72.671875 L 188.570313 71.03125 L 184.535156 75.164063 Z M 198.761719 64.628906 L 196.746094 62.65625 L 191.84375 67.679688 L 193.863281 69.648438 C 194.449219 70.21875 194.941406 70.515625 195.335938 70.539063 C 195.734375 70.566406 196.164063 70.339844 196.628906 69.863281 L 199.0625 67.375 C 199.515625 66.90625 199.726563 66.476563 199.691406 66.078125 C 199.65625 65.683594 199.347656 65.199219 198.761719 64.628906 Z M 198.761719 64.628906 "/>
<path style=" stroke:none;fill-rule:evenodd;fill:rgb(10.594177%,9.812927%,9.423828%);fill-opacity:1;" d="M 105.527344 173.703125 L 105.683594 165.914063 L 109.007813 165.984375 C 109.570313 165.992188 109.972656 166.121094 110.222656 166.363281 C 110.46875 166.609375 110.585938 166.996094 110.578125 167.523438 L 110.523438 170.214844 C 110.511719 170.738281 110.378906 171.117188 110.121094 171.351563 C 109.863281 171.585938 109.457031 171.695313 108.894531 171.683594 L 107.1875 171.648438 L 107.144531 173.734375 Z M 108.25 167.597656 L 107.269531 167.578125 L 107.21875 170.019531 L 108.199219 170.039063 C 108.484375 170.046875 108.679688 170.003906 108.785156 169.914063 C 108.894531 169.828125 108.949219 169.667969 108.953125 169.4375 L 108.976563 168.226563 C 108.980469 168 108.933594 167.839844 108.828125 167.746094 C 108.726563 167.65625 108.535156 167.605469 108.25 167.597656 Z M 108.25 167.597656 "/>
<path style=" stroke:none;fill-rule:evenodd;fill:rgb(10.594177%,9.812927%,9.423828%);fill-opacity:1;" d="M 96.699219 164.578125 C 96.148438 164.46875 95.726563 164.507813 95.433594 164.691406 C 95.140625 164.878906 94.941406 165.230469 94.839844 165.75 L 93.917969 170.421875 C 93.816406 170.9375 93.867188 171.335938 94.066406 171.621094 C 94.269531 171.902344 94.644531 172.097656 95.195313 172.207031 L 96.871094 172.539063 C 97.285156 172.617188 97.78125 172.664063 98.160156 172.425781 C 98.453125 172.242188 98.648438 171.890625 98.75 171.375 L 99.671875 166.703125 C 99.773438 166.183594 99.726563 165.78125 99.523438 165.5 C 99.324219 165.214844 98.945313 165.019531 98.394531 164.914063 C 97.832031 164.800781 97.265625 164.691406 96.699219 164.578125 Z M 97.117188 166.316406 L 97.351563 166.363281 C 97.628906 166.417969 97.8125 166.5 97.898438 166.609375 C 97.984375 166.71875 98.003906 166.882813 97.960938 167.105469 L 97.324219 170.339844 C 97.277344 170.566406 97.195313 170.714844 97.074219 170.78125 C 96.953125 170.851563 96.753906 170.859375 96.476563 170.800781 L 96.242188 170.757813 C 95.960938 170.703125 95.78125 170.617188 95.695313 170.511719 C 95.609375 170.402344 95.589844 170.234375 95.632813 170.007813 L 96.269531 166.773438 C 96.3125 166.550781 96.394531 166.40625 96.515625 166.335938 C 96.636719 166.269531 96.835938 166.261719 97.117188 166.316406 Z M 97.117188 166.316406 "/>
<path style=" stroke:none;fill-rule:evenodd;fill:rgb(10.594177%,9.812927%,9.423828%);fill-opacity:1;" d="M 85.046875 166.304688 L 84.582031 167.242188 C 84.347656 167.714844 84.066406 168 83.734375 168.105469 C 83.402344 168.207031 82.988281 168.132813 82.484375 167.882813 L 80.953125 167.128906 C 80.574219 166.941406 80.152344 166.675781 79.996094 166.257813 C 79.875 165.933594 79.933594 165.535156 80.164063 165.0625 L 80.523438 164.335938 L 81.960938 165.042969 L 81.929688 165.109375 C 81.828125 165.316406 81.800781 165.484375 81.855469 165.609375 C 81.910156 165.738281 82.066406 165.867188 82.320313 165.992188 L 82.535156 166.097656 C 82.789063 166.222656 82.984375 166.269531 83.117188 166.234375 C 83.253906 166.199219 83.371094 166.078125 83.472656 165.871094 L 83.601563 165.613281 C 83.671875 165.441406 83.6875 165.296875 83.636719 165.1875 C 83.585938 165.058594 83.429688 164.933594 83.175781 164.808594 L 83.082031 164.761719 L 83.085938 164.757813 L 82.308594 164.375 C 81.933594 164.191406 81.511719 163.925781 81.355469 163.507813 C 81.238281 163.183594 81.292969 162.785156 81.527344 162.3125 L 81.792969 161.769531 L 82.277344 160.789063 C 82.507813 160.316406 82.789063 160.03125 83.121094 159.925781 C 83.453125 159.824219 83.871094 159.898438 84.375 160.148438 L 85.90625 160.902344 C 86.28125 161.089844 86.707031 161.355469 86.863281 161.773438 C 86.980469 162.097656 86.925781 162.496094 86.691406 162.96875 L 86.332031 163.695313 L 84.898438 162.988281 L 84.929688 162.921875 C 85.03125 162.714844 85.054688 162.546875 85 162.421875 C 84.945313 162.292969 84.792969 162.167969 84.535156 162.039063 L 84.324219 161.933594 C 84.066406 161.808594 83.871094 161.765625 83.738281 161.796875 C 83.605469 161.832031 83.488281 161.953125 83.382813 162.160156 L 83.253906 162.425781 C 83.179688 162.601563 83.164063 162.746094 83.214844 162.859375 C 83.265625 162.984375 83.421875 163.113281 83.675781 163.238281 L 83.847656 163.324219 L 84.542969 163.667969 C 84.917969 163.855469 85.34375 164.121094 85.496094 164.539063 C 85.617188 164.863281 85.558594 165.261719 85.328125 165.734375 Z M 85.046875 166.304688 "/>
<path style=" stroke:none;fill-rule:evenodd;fill:rgb(10.594177%,9.812927%,9.423828%);fill-opacity:1;" d="M 92.785156 163.503906 L 91.152344 171.175781 C 90.613281 170.992188 89.972656 170.773438 89.609375 170.652344 L 89.953125 169.046875 L 88.734375 168.632813 L 88.027344 170.117188 C 87.667969 169.996094 87.023438 169.777344 86.488281 169.59375 L 89.847656 162.511719 C 90.828125 162.839844 91.808594 163.171875 92.785156 163.503906 Z M 90.347656 161.035156 L 93.3125 162.039063 L 93.0625 162.78125 L 90.097656 161.777344 Z M 90.902344 164.585938 L 90.6875 164.515625 L 89.433594 167.160156 L 90.289063 167.453125 Z M 90.902344 164.585938 "/>
<path style=" stroke:none;fill-rule:evenodd;fill:rgb(10.594177%,9.812927%,9.423828%);fill-opacity:1;" d="M 129.796875 170.488281 L 126.9375 163.242188 L 128.445313 162.648438 C 129.195313 164.558594 129.949219 166.46875 130.703125 168.375 L 133.78125 167.160156 L 134.378906 168.679688 C 132.851563 169.28125 131.324219 169.882813 129.796875 170.488281 Z M 129.796875 170.488281 "/>
<path style=" stroke:none;fill-rule:evenodd;fill:rgb(10.594177%,9.812927%,9.423828%);fill-opacity:1;" d="M 134.226563 160.226563 C 133.730469 160.492188 133.429688 160.789063 133.320313 161.121094 C 133.214844 161.449219 133.285156 161.847656 133.539063 162.3125 L 135.804688 166.503906 C 136.054688 166.964844 136.347656 167.242188 136.679688 167.332031 C 137.015625 167.421875 137.429688 167.332031 137.925781 167.066406 L 139.425781 166.253906 C 139.796875 166.054688 140.210938 165.769531 140.347656 165.347656 C 140.457031 165.019531 140.386719 164.621094 140.136719 164.160156 L 137.867188 159.96875 C 137.617188 159.507813 137.324219 159.226563 136.988281 159.136719 C 136.652344 159.046875 136.238281 159.136719 135.746094 159.402344 C 135.238281 159.679688 134.730469 159.953125 134.226563 160.226563 Z M 135.652344 161.300781 L 135.863281 161.1875 C 136.113281 161.050781 136.308594 161 136.441406 161.03125 C 136.578125 161.058594 136.699219 161.171875 136.808594 161.371094 L 138.375 164.269531 C 138.484375 164.472656 138.515625 164.640625 138.464844 164.769531 C 138.417969 164.898438 138.265625 165.03125 138.015625 165.167969 L 137.804688 165.28125 C 137.554688 165.417969 137.363281 165.46875 137.226563 165.441406 C 137.09375 165.410156 136.96875 165.292969 136.859375 165.089844 L 135.292969 162.191406 C 135.183594 161.992188 135.15625 161.828125 135.203125 161.699219 C 135.253906 161.570313 135.402344 161.4375 135.652344 161.300781 Z M 135.652344 161.300781 "/>
<path style=" stroke:none;fill-rule:evenodd;fill:rgb(10.594177%,9.812927%,9.423828%);fill-opacity:1;" d="M 120 165.070313 L 121.464844 171.167969 C 121.585938 171.679688 121.796875 172.023438 122.097656 172.195313 C 122.398438 172.371094 122.820313 172.390625 123.367188 172.257813 L 125.027344 171.859375 C 125.4375 171.761719 125.910156 171.597656 126.152344 171.222656 C 126.339844 170.933594 126.375 170.53125 126.25 170.019531 L 124.789063 163.921875 L 123.230469 164.296875 L 124.523438 169.675781 C 124.574219 169.898438 124.5625 170.070313 124.480469 170.179688 C 124.402344 170.292969 124.222656 170.382813 123.945313 170.449219 L 123.710938 170.503906 C 123.4375 170.570313 123.234375 170.574219 123.113281 170.507813 C 122.988281 170.445313 122.902344 170.300781 122.847656 170.078125 L 121.554688 164.699219 Z M 120 165.070313 "/>
<path style=" stroke:none;fill-rule:evenodd;fill:rgb(10.594177%,9.812927%,9.423828%);fill-opacity:1;" d="M 116.4375 165.570313 L 118.160156 173.21875 C 117.59375 173.277344 116.921875 173.347656 116.539063 173.390625 L 116.179688 171.785156 L 114.902344 171.921875 L 114.882813 173.566406 C 114.5 173.605469 113.828125 173.675781 113.261719 173.734375 L 113.351563 165.894531 C 114.378906 165.785156 115.410156 165.675781 116.4375 165.570313 Z M 115.179688 167.339844 L 114.953125 167.363281 L 114.917969 170.292969 L 115.820313 170.195313 Z M 115.179688 167.339844 "/>
</g>
</svg>
